<svg width="22" height="22" viewBox="0 0 22 22" fill="none" xmlns="http://www.w3.org/2000/svg">
<path d="M18.6681 14.704C18.1356 16.0523 17.2886 17.2469 16.2011 18.1836C15.1136 19.1203 13.8186 19.7706 12.429 20.0779C11.0394 20.3852 9.5974 20.3402 8.22873 19.9466C6.86007 19.5531 5.60629 18.8231 4.57673 17.8203C3.54717 16.8175 2.77309 15.5722 2.32197 14.1932C1.87086 12.8142 1.75641 11.3432 1.98861 9.9085C2.22082 8.47384 2.79262 7.11906 3.65415 5.96229C4.51569 4.80552 5.64081 3.88188 6.93141 3.27192" stroke="#14142B" stroke-width="2" stroke-linecap="round"/>
<path d="M14.794 2.2369C14.1998 1.98515 13.5816 1.80205 12.951 1.68995C12.1353 1.54496 11.4587 2.22988 11.4587 3.0583L11.4587 8.97303C11.4587 9.80146 12.1303 10.473 12.9587 10.473L18.6743 10.473C19.5027 10.473 20.1869 9.79701 20.0512 8.97979C19.9421 8.32323 19.7612 7.67969 19.5109 7.06151C19.0729 5.97993 18.4309 4.99718 17.6216 4.16937C16.8122 3.34156 15.8514 2.6849 14.794 2.2369Z" stroke="#14142B" stroke-width="2" stroke-linecap="round"/>
</svg>
