<svg xmlns="http://www.w3.org/2000/svg" xmlns:xlink="http://www.w3.org/1999/xlink" width="256" height="256" viewBox="0 0 256 256"><defs><linearGradient id="a" x1="0.907" y1="0.227" x2="0.163" y2="0.853" gradientUnits="objectBoundingBox"><stop offset="0" stop-color="#b6509e"/><stop offset="1" stop-color="#2ebac6"/></linearGradient><clipPath id="c"><rect width="256" height="256"/></clipPath></defs><g id="b" clip-path="url(#c)"><g transform="translate(-12 -12)"><circle cx="128" cy="128" r="128" transform="translate(12 12)" fill="url(#a)"/><path d="M114.954,112.687,71.661,8.057C69.214,2.65,65.6,0,60.811,0H56.982c-4.787,0-8.4,2.65-10.85,8.057L27.3,53.64H13.05a7.8,7.8,0,0,0-7.765,7.739v.106a7.8,7.8,0,0,0,7.765,7.739h7.659L2.732,112.687a9.169,9.169,0,0,0-.532,2.968,8.182,8.182,0,0,0,2.127,5.83,7.466,7.466,0,0,0,5.744,2.226,7.777,7.777,0,0,0,4.468-1.484,9.441,9.441,0,0,0,3.085-3.922L37.409,69.223H51.131A7.8,7.8,0,0,0,58.9,61.485v-.212a7.8,7.8,0,0,0-7.765-7.739h-7.34L58.9,15.9l41.166,102.4a9.441,9.441,0,0,0,3.085,3.922,7.777,7.777,0,0,0,4.468,1.484,7.466,7.466,0,0,0,5.744-2.226,8.182,8.182,0,0,0,2.127-5.83A7.009,7.009,0,0,0,114.954,112.687Z" transform="translate(81.058 78.309)" fill="#fff"/></g></g></svg>